<svg xmlns="http://www.w3.org/2000/svg" viewBox="0 0 800 280" fill="none">
  <defs>
    <linearGradient id="bg" x1="0" y1="0" x2="800" y2="280" gradientUnits="userSpaceOnUse">
      <stop stop-color="#504466"/><stop offset="1" stop-color="#354B60"/>
    </linearGradient>
    <linearGradient id="bowl" x1="385" y1="141" x2="522" y2="218" gradientUnits="userSpaceOnUse">
      <stop stop-color="#83C5B1"/><stop offset="1" stop-color="#4B8E89"/>
    </linearGradient>
  </defs>
  <rect width="800" height="280" rx="18" fill="url(#bg)"/>
  <circle cx="622" cy="45" r="112" fill="#C8B7FB" fill-opacity=".09"/>
  <path d="M0 229c133-35 239-8 350-15 147-9 295-44 450 8v58H0v-51Z" fill="#2D3D52" fill-opacity=".7"/>
  <g transform="translate(127 78)">
    <path d="M15 13c-25 35-11 92 33 112 45-20 58-78 33-112-13-17-53-17-66 0Z" fill="#F2E8CE"/>
    <path d="M37 34c-14 22-6 55 17 69 24-14 30-47 17-69-8-13-27-13-34 0Z" fill="#F3C86F"/>
    <path d="M19 22c14-13 45-15 60 1" stroke="#FFF9E9" stroke-width="6" stroke-linecap="round"/>
  </g>
  <g transform="translate(338 93)">
    <path d="M12 27h118l-12 97c-2 17-15 28-33 28H58c-18 0-31-11-33-28L12 27Z" fill="url(#bowl)"/>
    <path d="M7 25h128c7 0 11 5 11 11s-4 11-11 11H7c-7 0-11-5-11-11s4-11 11-11Z" fill="#A9D6C6"/>
    <circle cx="48" cy="72" r="13" fill="#DAA85E"/><circle cx="82" cy="63" r="14" fill="#E8C07A"/>
    <circle cx="103" cy="87" r="12" fill="#C9854C"/><circle cx="61" cy="103" r="12" fill="#F0CB83"/>
    <circle cx="91" cy="117" r="9" fill="#DDA65F"/>
    <path d="M49 70h3m28-9h3m19 24h3m-44 16h3m27 14h3" stroke="#8D623F" stroke-width="3" stroke-linecap="round"/>
  </g>
  <g transform="translate(586 72)">
    <path d="M34 12h53l8 23v112c0 14-10 24-24 24H50c-14 0-24-10-24-24V35l8-23Z" fill="#E5E4D8"/>
    <path d="M35 70h54v77c0 11-8 18-18 18H53c-10 0-18-7-18-18V70Z" fill="#9BC9C0"/>
    <path d="M34 12h53v18H34z" fill="#F1D390"/>
    <path d="M48 95h28m-28 14h28" stroke="#E3F1E4" stroke-width="4" stroke-linecap="round"/>
  </g>
  <g fill="#E3D7FF" fill-opacity=".6"><circle cx="94" cy="61" r="3"/><circle cx="288" cy="54" r="2"/><circle cx="738" cy="196" r="3"/><circle cx="535" cy="53" r="2"/></g>
</svg>
