<svg xmlns="http://www.w3.org/2000/svg" viewBox="0 0 800 280" fill="none">
  <defs>
    <linearGradient id="bg" x1="0" y1="0" x2="800" y2="280" gradientUnits="userSpaceOnUse">
      <stop stop-color="#294F68"/><stop offset="1" stop-color="#426E71"/>
    </linearGradient>
    <linearGradient id="fish" x1="153" y1="83" x2="352" y2="192" gradientUnits="userSpaceOnUse">
      <stop stop-color="#FFD09B"/><stop offset="1" stop-color="#E98669"/>
    </linearGradient>
  </defs>
  <rect width="800" height="280" rx="18" fill="url(#bg)"/>
  <path d="M0 211c105-43 214 33 332-3s238-26 468 10v62H0v-69Z" fill="#1F4053" fill-opacity=".62"/>
  <path d="M0 237c133-42 227 23 373-8 110-24 229-19 427 8" stroke="#8DD0CF" stroke-opacity=".24" stroke-width="3"/>
  <g transform="translate(140 78)">
    <path d="M39 62C83 11 173 5 223 57c-45 66-139 78-184 5Z" fill="url(#fish)"/>
    <path d="m42 62-42-39v79l42-40Z" fill="#E3A477"/>
    <path d="M113 29c24 26 25 55 1 77M155 28c23 27 24 54 2 73" stroke="#F9D8AC" stroke-opacity=".8" stroke-width="3"/>
    <circle cx="194" cy="54" r="5" fill="#263C48"/>
    <path d="M67 61h18" stroke="#F7D7AA" stroke-width="3" stroke-linecap="round"/>
  </g>
  <g transform="translate(433 73)">
    <path d="M52 2c-30 0-48 28-43 63 4 34 26 58 51 54 28-4 44-36 37-70C91 19 76 2 52 2Z" fill="#F4EAD0"/>
    <path d="M59 26c-20 0-34 17-30 38 3 19 17 33 34 31 17-3 27-20 23-40-3-18-12-29-27-29Z" fill="#F5C66F"/>
    <path d="M49 8c19-8 43 10 50 31" stroke="#FFF9E9" stroke-width="6" stroke-linecap="round"/>
  </g>
  <g transform="translate(584 92)">
    <path d="M19 13c29-23 69-12 82 14 16 32-8 74-43 82C22 118-7 90 1 57c3-17 6-32 18-44Z" fill="#6E9B66"/>
    <path d="M47 35c17-12 38-4 43 14 6 20-8 42-28 47-20 4-36-12-32-31 2-13 8-23 17-30Z" fill="#B9A675"/>
    <path d="M54 57c9-9 20-5 23 5 2 9-5 18-14 19-10 0-15-11-9-19Z" fill="#66553D"/>
  </g>
  <g fill="#D5F2DF" fill-opacity=".65"><circle cx="84" cy="61" r="3"/><circle cx="395" cy="56" r="2"/><circle cx="745" cy="70" r="3"/><circle cx="500" cy="220" r="2"/></g>
</svg>
